<svg xmlns="http://www.w3.org/2000/svg" viewBox="0 0 163 235"><defs><style>.cls-1{fill:#fd0;}.cls-1,.cls-2{stroke:#000;stroke-miterlimit:10;}.cls-2{fill:#ff73e3;}</style></defs><g id="Layer_2" data-name="Layer 2"><g id="Layer_1-2" data-name="Layer 1"><path class="cls-1" d="M146.51,66.62c-5-20.1-26.45-47.6-45.13-56.42S61.4-.61,40.82,1C29,2,15.7,5,9.62,15.26c-3,5-3.56,11-4.32,16.69C.63,67.2-.45,96,1.27,128c1.64,30.49-.24,72.4,9.54,100.59,1,2.91,16.79,5.09,29.66,5.76,9.41.49,38.24-.68,43.89-2.38,43.43-13.11,64.52-64.6,66.89-77.26C161.35,100.94,149.05,76.75,146.51,66.62ZM98.59,123.79c-6.44,11.55-18.34,19.09-30.82,22.84-4.35,1.31-9.94,1.81-12.58-2a10.38,10.38,0,0,1-1.53-4.86c-.48-4.42-2.48-41.39-1.69-59.12a8.54,8.54,0,0,1,.87-4.08c1.61-2.7,5.36-2.73,8.44-2.43,12.5,1.22,26.19,3,34.71,12.43C104.82,96.36,105,112.23,98.59,123.79Z" transform="translate(0)"/><path class="cls-2" d="M153.84,66.62C148.79,46.52,127.39,19,108.7,10.2S68.73-.61,48.15,1C36.29,2,23,5,16.94,15.26c-3,5-3.55,11-4.31,16.69C8,67.2,6.88,96,8.6,128c1.64,30.49-.25,72.4,9.54,100.59,1,2.91,16.79,5.09,29.66,5.76,9.41.49,38.24-.68,43.89-2.38,43.43-13.11,64.52-64.6,66.89-77.26C168.68,100.94,156.38,76.75,153.84,66.62Zm-47.92,57.17c-6.44,11.55-18.34,19.09-30.82,22.84-4.36,1.31-9.95,1.81-12.59-2A10.37,10.37,0,0,1,61,139.8c-.48-4.42-2.49-41.39-1.7-59.12a8.54,8.54,0,0,1,.87-4.08c1.62-2.7,5.37-2.73,8.45-2.43,12.5,1.22,26.19,3,34.71,12.43C112.15,96.36,112.36,112.23,105.92,123.79Z" transform="translate(0)"/></g></g></svg>