<svg id="Layer_1" data-name="Layer 1" xmlns="http://www.w3.org/2000/svg" viewBox="0 0 942.25 553.35"><defs><style>.cls-1{fill:#fff200;}</style></defs><path class="cls-1" d="M42.48,495.84A13,13,0,0,0,31,487.61c-5.16-.29-10,2.69-13,6.7-6.21,8.31-3.75,20.78,4.76,26.44a19.22,19.22,0,0,0,15.65,2.46c3.09-.87,1.78-5.7-1.33-4.82-6.81,1.92-14.58-1.74-16.81-8.6s1-15.4,8.48-17c3.42-.74,7.64,1,8.94,4.41a2.56,2.56,0,0,0,3.07,1.74,2.52,2.52,0,0,0,1.75-3.07Z" transform="translate(-5.59 -12.36)"/><path class="cls-1" d="M33.83,519.62c-11.79-.46-20.56,12.93-16.24,23.67A20.83,20.83,0,0,0,46,554a25.71,25.71,0,0,0,12.87-14.13,2.51,2.51,0,0,0-1.75-3.07,2.55,2.55,0,0,0-3.07,1.74c-3.12,8.05-12.12,14.41-20.91,12.19-8.21-2.07-14.61-10.92-10.3-19.13,2.16-4.1,6.24-7.15,11-7,3.22.12,3.21-4.88,0-5Z" transform="translate(-5.59 -12.36)"/><path class="cls-1" d="M54.14,538.07A18,18,0,0,0,67.1,553c7,1.94,14.05-1.23,18.18-7a16.86,16.86,0,0,0,3.14-11,2.56,2.56,0,0,0-2.5-2.5,2.53,2.53,0,0,0-2.5,2.5c.5,6.29-4.23,12.68-10.63,13.51-6.18.8-12.84-4.22-13.65-10.44a2.59,2.59,0,0,0-2.5-2.5,2.51,2.51,0,0,0-2.5,2.5Z" transform="translate(-5.59 -12.36)"/><path class="cls-1" d="M43.71,527a6,6,0,0,0-6.41-1.41,6.39,6.39,0,0,0-4.23,5.75,7.66,7.66,0,0,0,3,6.46,9.54,9.54,0,0,0,6.88,1.8,16.38,16.38,0,0,0,8.08-3.73,2.51,2.51,0,0,0,0-3.54,2.57,2.57,0,0,0-3.53,0c.41-.32-.32.23-.39.28l-.74.5a15.79,15.79,0,0,1-1.56.86c-.1,0-.71.29-.22.1a8.15,8.15,0,0,1-.83.29,8.33,8.33,0,0,1-.86.22l-.42.08c.33,0,.35,0,.06,0-.48,0-.94,0-1.42,0-.29,0-.27,0,.06,0l-.4-.08c-.26-.06-.51-.14-.77-.22s-.25-.09,0,0l-.36-.18c-.18-.09-.35-.2-.52-.3s-.22-.15,0,0a3.65,3.65,0,0,1-.3-.27l-.26-.26c-.18-.21-.16-.19,0,.07a2.67,2.67,0,0,1-.39-.63c-.12-.25-.11-.22,0,.09-.05-.12-.09-.23-.13-.35s-.09-.36-.14-.54,0-.24,0,.12c0-.13,0-.25,0-.37s0-.24,0-.37,0-.24,0,.13a1.7,1.7,0,0,1,.19-.7q-.21.46,0,.09l.09-.16a2.4,2.4,0,0,1,.19-.29c-.23.29-.26.34-.08.14a2.39,2.39,0,0,1,.23-.22c-.29.22-.33.26-.11.1l.28-.16c.24-.12.19-.1-.16,0a4,4,0,0,1,.63-.19c.49-.15-.55,0,0,0,.12,0,.56.07.64,0-.4-.06-.47-.06-.19,0l.3.08c-.36-.16-.41-.18-.17-.07l.27.16c-.29-.24-.33-.27-.13-.1a2.39,2.39,0,0,1,.22.23,2.52,2.52,0,0,0,3.54,0,2.55,2.55,0,0,0,0-3.53Z" transform="translate(-5.59 -12.36)"/><path class="cls-1" d="M62.2,535.84a9.7,9.7,0,0,0,9.22,5.65,9.92,9.92,0,0,0,8.71-6.79,2.5,2.5,0,0,0-4.82-1.33s-.2.59-.07.24-.08.14-.11.21c-.15.28-.32.55-.49.81-.34.5.34-.36-.07.09-.11.11-.21.23-.33.34l-.34.33c-.05.05-.48.37-.18.16s-.15.09-.21.13-.27.17-.41.25-.27.14-.41.22c-.53.28.31-.09,0,0s-.65.22-1,.29a2,2,0,0,0-.37.07l.2,0h-.28a5.11,5.11,0,0,1-1,0s.56.1,0,0l-.46-.11-.46-.14c-.28-.1-.32-.15,0,0a8.68,8.68,0,0,1-.85-.46c-.17-.1-.32-.21-.48-.32.16.11.26.22,0,0s-.49-.51-.74-.75.3.47,0,0c-.09-.13-.18-.26-.26-.4a6.5,6.5,0,0,1-.48-1,2.5,2.5,0,0,0-3.42-.89,2.57,2.57,0,0,0-.9,3.42Z" transform="translate(-5.59 -12.36)"/><path class="cls-1" d="M39.62,511.43l-.32.06.18,0a4.73,4.73,0,0,0-.65,0,4.7,4.7,0,0,1-.65,0l-.32,0c-.57,0,.57.12,0,0a10.56,10.56,0,0,1-1.26-.32l-.31-.11c-.36-.13.16,0,.15.07l-.64-.33c-.19-.11-.37-.22-.54-.34-.51-.35.33.3-.13-.1-.16-.14-.31-.29-.46-.45l-.21-.23c-.27-.32,0-.12,0,.06a2.51,2.51,0,0,0-.34-.53c0-.09-.09-.18-.14-.26-.2-.35.06.12.07.19a3.73,3.73,0,0,0-.2-.56,3.25,3.25,0,0,0-.17-.73s.06.65,0,.22c0-.1,0-.2,0-.3a5.8,5.8,0,0,1,0-.59c0-.1,0-.2,0-.3s.14-.24,0,.22c.07-.2.08-.45.13-.66l.15-.49a1.36,1.36,0,0,0,.11-.28c0,.42-.2.41-.08.2s.18-.35.29-.52l.16-.24c.26-.43-.39.41,0,.05.14-.14.27-.29.41-.42s.2-.14.22-.19-.5.33-.15.13l.49-.29c.22-.12.22,0-.22.09a1.73,1.73,0,0,0,.32-.11l.53-.12c.31-.08-.57,0-.25,0h.27a4.87,4.87,0,0,1,.54,0c.11,0,.44,0,0,0s0,0,.08,0l.66.18a1.39,1.39,0,0,0,.26.1c-.16,0-.52-.25-.16-.05a5.54,5.54,0,0,1,.53.3,1.7,1.7,0,0,0,.22.15c-.44-.19-.32-.26-.09-.05s.28.29.42.44-.3-.46-.15-.2c.06.1.13.19.18.28s.09.16.13.24c.24.39-.16-.56,0-.11.06.22.12.43.16.66A2.51,2.51,0,0,0,41.9,508a2.56,2.56,0,0,0,1.74-3.07,7.15,7.15,0,0,0-4.89-5.22,7.37,7.37,0,0,0-7.2,1.33,8.46,8.46,0,0,0-2.8,6.61,8.87,8.87,0,0,0,3.68,6.92,10.71,10.71,0,0,0,8.51,1.73,2.52,2.52,0,0,0,1.75-3.08,2.56,2.56,0,0,0-3.07-1.74Z" transform="translate(-5.59 -12.36)"/><path class="cls-1" d="M59.46,39.7l-2-12.92A2.5,2.5,0,0,0,54.36,25a2.57,2.57,0,0,0-1.74,3.07l2,12.92a2.5,2.5,0,0,0,3.07,1.75,2.59,2.59,0,0,0,1.75-3.08Z" transform="translate(-5.59 -12.36)"/><path class="cls-1" d="M44.41,44.23,25.68,32.85c-2.76-1.67-5.27,2.65-2.52,4.32L41.88,48.55c2.76,1.67,5.28-2.65,2.53-4.32Z" transform="translate(-5.59 -12.36)"/><path class="cls-1" d="M42.15,61,26.51,62.34a2.5,2.5,0,0,0,0,5L42.15,66a2.56,2.56,0,0,0,2.5-2.5,2.53,2.53,0,0,0-2.5-2.5Z" transform="translate(-5.59 -12.36)"/><path class="cls-1" d="M44,34.61l2.57,5.58a2.49,2.49,0,0,0,1.49,1.14,2.5,2.5,0,0,0,3.08-1.74l.09-.67a2.54,2.54,0,0,0-.35-1.26l-2.56-5.58a2.51,2.51,0,0,0-1.5-1.15,2.57,2.57,0,0,0-1.92.25,2.5,2.5,0,0,0-1.15,1.5l-.09.66A2.47,2.47,0,0,0,44,34.61Z" transform="translate(-5.59 -12.36)"/><path class="cls-1" d="M38,51.89H29.81a2.5,2.5,0,0,0,0,5H38a2.5,2.5,0,0,0,0-5Z" transform="translate(-5.59 -12.36)"/><path class="cls-1" d="M81.64,554a9.4,9.4,0,0,0,5.53,7.62,15.92,15.92,0,0,0,10.8.73c3.48-.82,6.93-2.44,10.53-2.46,2.57,0,5.26.7,6.48,3.07l3.93-3c-3.33-3.24.75-9.21,2.08-12.44a13.66,13.66,0,0,0,1-8.31,11.79,11.79,0,0,0-4.62-6.73,2.52,2.52,0,0,0-3.42.9,2.57,2.57,0,0,0,.9,3.42,6.47,6.47,0,0,1,2.44,5.37c-.1,2.61-1.6,5-2.64,7.35-2,4.43-3.14,10.18.75,14a2.51,2.51,0,0,0,3.93-3c-3.34-6.47-11.63-6.08-17.58-4.35-3.13.9-6.59,2.37-9.91,1.82-2.13-.35-4.94-1.69-5.17-3.91a2.57,2.57,0,0,0-2.5-2.5,2.52,2.52,0,0,0-2.5,2.5Z" transform="translate(-5.59 -12.36)"/><path class="cls-1" d="M96.37,542.16l7.16,7.1a2.51,2.51,0,0,0,3.53,0,2.54,2.54,0,0,0,0-3.53l-7.16-7.11a2.5,2.5,0,0,0-3.53,3.54Z" transform="translate(-5.59 -12.36)"/><path class="cls-1" d="M34.69,479.14c-2.08-1.07-2.63-3.45-2.35-5.8.36-3,2.5-5.8,4.2-8.3a30,30,0,0,0,4.77-10,26.68,26.68,0,0,0,.12-11.56l-4.17,2.43,7.16,5.6a2.58,2.58,0,0,0,3.53,0A2.52,2.52,0,0,0,48,448l-7.16-5.6c-1.94-1.51-4.71-.16-4.18,2.44a21.08,21.08,0,0,1-.72,11c-1.24,3.68-3.77,6.63-5.77,9.9a16,16,0,0,0-2.78,9.73c.28,3.28,1.79,6.47,4.82,8,2.86,1.47,5.39-2.84,2.53-4.32Z" transform="translate(-5.59 -12.36)"/><path class="cls-1" d="M46.17,474.59l.46-5.1a2.5,2.5,0,0,0-4.27-1.77l-.39.51a2.43,2.43,0,0,0-.34,1.26l-.46,5.1a2.52,2.52,0,0,0,.73,1.76,2.58,2.58,0,0,0,1.77.74,2.5,2.5,0,0,0,1.77-.74l.39-.5a2.43,2.43,0,0,0,.34-1.26Z" transform="translate(-5.59 -12.36)"/><path class="cls-1" d="M57.36,563.21l.49-8.66a2.52,2.52,0,0,0-2.5-2.5,2.55,2.55,0,0,0-2.5,2.5l-.49,8.66a2.51,2.51,0,0,0,2.5,2.5,2.56,2.56,0,0,0,2.5-2.5Z" transform="translate(-5.59 -12.36)"/><path class="cls-1" d="M8.09,523.87l7.64.47a2.51,2.51,0,0,0,2.5-2.5,2.56,2.56,0,0,0-2.5-2.5l-7.64-.47a2.51,2.51,0,0,0-2.5,2.5,2.56,2.56,0,0,0,2.5,2.5Z" transform="translate(-5.59 -12.36)"/><path class="cls-1" d="M887.48,540.65l2.82,17.54a2.52,2.52,0,0,0,3.08,1.75,2.56,2.56,0,0,0,1.74-3.08l-2.82-17.54a2.5,2.5,0,0,0-4.82,1.33Z" transform="translate(-5.59 -12.36)"/><path class="cls-1" d="M908.09,537l26.23,15.45c2.78,1.64,5.3-2.68,2.52-4.32l-26.22-15.44c-2.78-1.64-5.3,2.68-2.53,4.31Z" transform="translate(-5.59 -12.36)"/><path class="cls-1" d="M910.76,514.14l21.89-1.85a2.55,2.55,0,0,0,2.5-2.5,2.53,2.53,0,0,0-2.5-2.5l-21.89,1.85a2.56,2.56,0,0,0-2.5,2.5,2.51,2.51,0,0,0,2.5,2.5Z" transform="translate(-5.59 -12.36)"/><path class="cls-1" d="M907.3,547.5l-3.6-7.58a2.56,2.56,0,0,0-1.49-1.15,2.5,2.5,0,0,0-3.08,1.75,2.82,2.82,0,0,0,.25,1.93L903,550a2.49,2.49,0,0,0,1.49,1.15,2.5,2.5,0,0,0,3.08-1.75,2.85,2.85,0,0,0-.25-1.92Z" transform="translate(-5.59 -12.36)"/><path class="cls-1" d="M911.81,526.48h11.41a2.5,2.5,0,0,0,0-5H911.81a2.5,2.5,0,0,0,0,5Z" transform="translate(-5.59 -12.36)"/><path class="cls-1" d="M910.21,83.89a13,13,0,0,0,11.53,8.23c5.16.28,10-2.7,13-6.71,6.22-8.3,3.76-20.77-4.75-26.44a19.18,19.18,0,0,0-15.65-2.45c-3.1.87-1.78,5.7,1.32,4.82,6.81-1.93,14.59,1.73,16.82,8.6s-1,15.4-8.49,17c-3.41.73-7.63-1-8.93-4.41A2.58,2.58,0,0,0,912,80.81a2.52,2.52,0,0,0-1.74,3.08Z" transform="translate(-5.59 -12.36)"/><path class="cls-1" d="M918.86,60.11c11.79.46,20.56-12.94,16.23-23.67a20.82,20.82,0,0,0-28.41-10.7,25.73,25.73,0,0,0-12.86,14.13A2.52,2.52,0,0,0,895.56,43a2.56,2.56,0,0,0,3.08-1.75c3.12-8.05,12.12-14.4,20.9-12.19,8.22,2.08,14.62,10.92,10.31,19.13-2.16,4.11-6.24,7.15-11,7-3.22-.13-3.22,4.87,0,5Z" transform="translate(-5.59 -12.36)"/><path class="cls-1" d="M898.55,41.66a18,18,0,0,0-13-14.91c-7-1.94-14,1.23-18.17,7a16.91,16.91,0,0,0-3.15,11,2.57,2.57,0,0,0,2.5,2.5,2.51,2.51,0,0,0,2.5-2.5c-.49-6.28,4.23-12.68,10.64-13.5,6.18-.8,12.84,4.21,13.65,10.44a2.58,2.58,0,0,0,2.5,2.5,2.51,2.51,0,0,0,2.5-2.5Z" transform="translate(-5.59 -12.36)"/><path class="cls-1" d="M909,52.76a6,6,0,0,0,6.4,1.41,6.39,6.39,0,0,0,4.24-5.76,7.68,7.68,0,0,0-3-6.45,9.49,9.49,0,0,0-6.88-1.8,16.38,16.38,0,0,0-8.08,3.73,2.5,2.5,0,0,0,0,3.53,2.57,2.57,0,0,0,3.53,0c-.42.33.32-.22.39-.27l.74-.5a14.81,14.81,0,0,1,1.56-.87c.1-.05.7-.28.21-.1l.84-.29c.28-.08.57-.16.86-.22l.41-.07c-.33,0-.35,0-.06,0,.49,0,.95,0,1.43,0,.29,0,.27,0-.06,0l.39.08c.27.06.52.15.78.22s.25.09,0,0l.36.18c.18.09.35.2.52.3s.22.15,0,0l.3.26.26.27c.17.21.16.18,0-.08a2.74,2.74,0,0,1,.39.64c.12.25.11.22,0-.09a2.06,2.06,0,0,1,.12.35c.06.18.1.36.15.54s0,.24,0-.12c0,.12,0,.24,0,.37a2.16,2.16,0,0,1,0,.36q0,.43,0-.12a1.7,1.7,0,0,1-.19.7c.14-.31.15-.35,0-.1l-.09.16a2.9,2.9,0,0,1-.19.29c.23-.29.26-.33.08-.13s-.15.15-.24.22c.3-.22.34-.26.12-.11a2.61,2.61,0,0,1-.28.17c-.24.12-.19.1.15,0a5.15,5.15,0,0,1-.62.19c-.5.14.55,0,0,0a2.33,2.33,0,0,0-.64,0c.4.06.46.06.19,0a1.71,1.71,0,0,1-.3-.09c.35.17.41.19.17.07a1.75,1.75,0,0,1-.27-.16c.29.25.33.28.13.1s-.15-.15-.23-.23a2.52,2.52,0,0,0-3.53,0,2.56,2.56,0,0,0,0,3.54Z" transform="translate(-5.59 -12.36)"/><path class="cls-1" d="M890.49,43.89a9.72,9.72,0,0,0-9.22-5.66A9.91,9.91,0,0,0,872.56,45a2.52,2.52,0,0,0,1.75,3.08,2.56,2.56,0,0,0,3.07-1.75s.2-.59.07-.23.07-.15.11-.22a8.15,8.15,0,0,1,.49-.8c.34-.51-.35.35.07-.09l.32-.34a3.61,3.61,0,0,1,.35-.33c.05-.05.47-.38.18-.16s.15-.1.21-.14l.4-.24.42-.22c.53-.28-.31.09,0,0s.65-.22,1-.29a1.74,1.74,0,0,0,.37-.07c-.32,0-.38,0-.19,0l.28,0a5.86,5.86,0,0,1,1,0s-.55-.1,0,0a3.59,3.59,0,0,1,.47.12l.46.14c.28.1.32.15,0,0,.29.15.57.29.85.46l.48.33c-.16-.11-.26-.22-.06,0s.5.51.75.75-.3-.47,0,0c.09.14.18.27.26.41a6.93,6.93,0,0,1,.48.94,2.5,2.5,0,0,0,3.42.9,2.59,2.59,0,0,0,.9-3.42Z" transform="translate(-5.59 -12.36)"/><path class="cls-1" d="M913.07,68.3l.32-.06c.43-.09-.13,0-.18,0a3.55,3.55,0,0,0,.65,0h.65l.32,0c.57,0-.57-.12,0,0a10.56,10.56,0,0,1,1.26.32l.31.11c.36.13-.17,0-.15-.06l.64.33c.19.11.37.22.54.34.5.35-.33-.3.13.1.16.14.31.29.46.44l.21.24c.27.32,0,.12,0-.06a3.15,3.15,0,0,0,.34.53c0,.08.09.17.14.26.2.35-.06-.13-.07-.19a3.73,3.73,0,0,0,.2.56,3.38,3.38,0,0,0,.16.73s-.05-.65,0-.23l0,.3q0,.3,0,.6c0,.1,0,.2,0,.3s-.14.24,0-.22c-.08.19-.08.45-.14.65s-.09.33-.14.5a1.28,1.28,0,0,0-.11.27c0-.41.19-.4.08-.19s-.18.35-.29.51-.11.16-.16.25c-.27.42.39-.41,0,0l-.41.42c-.05,0-.2.14-.22.19s.5-.33.15-.13l-.5.29c-.21.12-.21,0,.23-.09a1.83,1.83,0,0,0-.33.11c-.17.05-.35.08-.53.12s.58,0,.26,0l-.27,0a5.09,5.09,0,0,1-.55,0c-.1,0-.43,0,0,0s0,0-.07,0a3.79,3.79,0,0,1-.66-.18,1.34,1.34,0,0,0-.26-.09c.16,0,.52.25.16,0-.18-.1-.36-.19-.53-.3a1.34,1.34,0,0,0-.23-.16c.45.19.33.27.09,0s-.27-.29-.41-.43.29.45.14.19c0-.09-.12-.18-.18-.28l-.12-.23c-.24-.4.16.56,0,.11-.06-.22-.12-.44-.16-.66a2.52,2.52,0,0,0-3.08-1.75,2.56,2.56,0,0,0-1.74,3.08,7.16,7.16,0,0,0,4.88,5.22,7.42,7.42,0,0,0,7.21-1.34,8.44,8.44,0,0,0,2.8-6.61,8.85,8.85,0,0,0-3.68-6.91,10.73,10.73,0,0,0-8.52-1.73A2.5,2.5,0,0,0,910,66.55a2.56,2.56,0,0,0,3.07,1.75Z" transform="translate(-5.59 -12.36)"/><path class="cls-1" d="M871.05,25.73a9.4,9.4,0,0,0-5.53-7.61,15.92,15.92,0,0,0-10.8-.73c-3.48.81-6.94,2.43-10.53,2.45-2.57,0-5.26-.69-6.49-3.07l-3.92,3C837.1,23,833,29,831.7,32.25a13.64,13.64,0,0,0-1,8.3,11.76,11.76,0,0,0,4.62,6.73,2.51,2.51,0,0,0,3.42-.89,2.57,2.57,0,0,0-.9-3.42,6.47,6.47,0,0,1-2.44-5.38c.1-2.6,1.6-5,2.64-7.34,2-4.43,3.14-10.19-.76-14-2.07-2-5.21.52-3.92,3,3.33,6.47,11.63,6.07,17.58,4.35,3.13-.9,6.59-2.37,9.91-1.83,2.13.36,4.93,1.7,5.17,3.91a2.57,2.57,0,0,0,2.5,2.5,2.52,2.52,0,0,0,2.5-2.5Z" transform="translate(-5.59 -12.36)"/><path class="cls-1" d="M856.32,37.57l-7.16-7.11A2.5,2.5,0,0,0,845.63,34l7.16,7.1a2.5,2.5,0,1,0,3.53-3.53Z" transform="translate(-5.59 -12.36)"/><path class="cls-1" d="M918,100.58c2.08,1.07,2.63,3.46,2.35,5.81-.36,3-2.5,5.8-4.21,8.3a30.17,30.17,0,0,0-4.76,10,26.88,26.88,0,0,0-.13,11.57l4.18-2.43-7.16-5.6a2.57,2.57,0,0,0-3.53,0,2.5,2.5,0,0,0,0,3.53l7.16,5.6c1.94,1.52,4.71.16,4.18-2.43a20.92,20.92,0,0,1,.72-11c1.24-3.67,3.77-6.62,5.77-9.89a16.13,16.13,0,0,0,2.78-9.74c-.28-3.28-1.79-6.46-4.82-8-2.86-1.48-5.39,2.84-2.53,4.31Z" transform="translate(-5.59 -12.36)"/><path class="cls-1" d="M906.52,105.14l-.46,5.1a2.49,2.49,0,0,0,2.5,2.5,2.53,2.53,0,0,0,1.77-.73l.39-.51a2.43,2.43,0,0,0,.34-1.26l.46-5.1a2.49,2.49,0,0,0-2.5-2.5,2.53,2.53,0,0,0-1.77.73l-.39.51a2.43,2.43,0,0,0-.34,1.26Z" transform="translate(-5.59 -12.36)"/><path class="cls-1" d="M896.06,14.86l-.49,8.66a2.52,2.52,0,0,0,2.5,2.5,2.55,2.55,0,0,0,2.5-2.5l.49-8.66a2.51,2.51,0,0,0-2.5-2.5,2.57,2.57,0,0,0-2.5,2.5Z" transform="translate(-5.59 -12.36)"/><path class="cls-1" d="M945.33,54.2l-7.64-.47a2.51,2.51,0,0,0-2.5,2.5,2.56,2.56,0,0,0,2.5,2.5l7.64.47a2.51,2.51,0,0,0,2.5-2.5,2.56,2.56,0,0,0-2.5-2.5Z" transform="translate(-5.59 -12.36)"/><path class="cls-1" d="M341,543.42q53,1,106,1,52.74,0,105.46-.92,29.75-.53,59.48-1.35c3.21-.09,3.22-5.09,0-5q-53,1.47-106,2-52.73.51-105.46.08-29.75-.24-59.49-.78c-3.21-.06-3.21,4.94,0,5Z" transform="translate(-5.59 -12.36)"/><path class="cls-1" d="M368.36,556.92l84.41-1,84.42-1,47.45-.58c3.22,0,3.23-5,0-5l-84.41,1-84.42,1-47.45.58c-3.22,0-3.23,5,0,5Z" transform="translate(-5.59 -12.36)"/><path class="cls-1" d="M326.41,37.26q53-1,106-1,52.72,0,105.46.92,29.75.53,59.47,1.35c3.22.09,3.22-4.91,0-5q-53-1.47-106-2Q438.64,31,385.9,31.47q-29.75.24-59.49.79c-3.21.06-3.22,5.06,0,5Z" transform="translate(-5.59 -12.36)"/><path class="cls-1" d="M353.73,23.76l84.42,1,84.42,1L570,26.4c3.22,0,3.22-5,0-5l-84.41-1-84.42-1-47.46-.58c-3.21,0-3.22,5,0,5Z" transform="translate(-5.59 -12.36)"/><path class="cls-1" d="M460.44,316.05q13.67-5.82,27.31-11.72c4.26-1.84,8.53-3.67,12.79-5.53,2.95-1.29,5.69-2.94,6.88-6.11,1.26-3.36-.31-6.55-3.21-8.37a42,42,0,0,0-4.29-2.17l-5.37-2.61-10.07-4.9-10.07-4.89c-3.32-1.62-6.62-3.37-10-4.84-3-1.31-6.72-1.89-9.15.88-1.84,2.1-2.06,5-2.21,7.64-.25,4.64-.34,9.3-.43,13.94q-.18,8.86-.23,17.72c0,2.38-.4,5.14.15,7.47a5.37,5.37,0,0,0,7.31,3.75,2.58,2.58,0,0,0,1.75-3.08,2.53,2.53,0,0,0-3.08-1.75,3,3,0,0,1-1,.24c.26,0-.1-.18,0,0-.16-.22-.1-.1-.1-.07,0,.19-.1-.32-.12-.47a10.68,10.68,0,0,1,0-1.6c0-1.92,0-3.84.05-5.77,0-4.77.09-9.54.18-14.32.07-4.44.16-8.89.34-13.34a30.94,30.94,0,0,1,.43-5.53c.16-.68.36-1.51,1-1.8.86-.38,2.1.21,2.88.54,3.05,1.3,6,2.91,9,4.36l9.17,4.46,18.35,8.92c1.52.74,4.75,1.65,4,3.89s-3.7,3-5.6,3.86l-11.57,5q-13.82,6-27.63,11.87a2.51,2.51,0,0,0-.9,3.42A2.56,2.56,0,0,0,460.44,316.05Z" transform="translate(-5.59 -12.36)"/><path class="cls-1" d="M460,285.76l-.18,21.18a1.88,1.88,0,0,0,3.68.5c1.42-5.39,1.5-11,1.52-16.51q0-8.7.07-17.39h-3.75l3.28,30.36a1.91,1.91,0,0,0,1.63,1.84,1.87,1.87,0,0,0,2.06-1.35l3.93-22.54-3.68-.5A83.83,83.83,0,0,0,471.24,301c.56,2.14,3.52,1.53,3.68-.5a107.31,107.31,0,0,1,3.5-19.9l-3.69-.5,2.17,20.47a1.89,1.89,0,0,0,1.63,1.84,1.84,1.84,0,0,0,2.05-1.34L483.7,285h-3.62l4.06,12a1.89,1.89,0,0,0,3.61,0l2.43-8.41-3.69-.5c-.27,2.53.66,5.57,3.47,6.16a3.59,3.59,0,0,0,4.06-4.55l-3.43,1.45,1.64,2.4c.72,1,2.6,1.38,3.24,0l1.35-2.93-3.49-.95a4,4,0,0,0,2.4,3.66,3.63,3.63,0,0,0,4.11-1.13,1.92,1.92,0,0,0,0-2.65,1.88,1.88,0,0,0-2.65,0c-.29.37-.09.39-.11.12-.12-1.67-2.65-2.78-3.5-.94l-1.35,2.93h3.24l-1.64-2.4c-1.16-1.7-4-.7-3.43,1.44,0-.05.05-.06.05,0s.11.1.34-.06c-.05-.1-.3-.14-.36-.32a4.67,4.67,0,0,1-.19-2.2c.23-2.15-3.11-2.47-3.68-.5L484.14,296h3.61l-4.05-12c-.55-1.62-3.24-1.95-3.62,0L477,300.1l3.68.5-2.17-20.47c-.21-2-3.08-2.68-3.68-.5a113,113,0,0,0-3.63,20.9l3.69-.5a79.61,79.61,0,0,1-2.55-18.68c0-2-3.3-2.65-3.68-.5l-3.94,22.55,3.68.5-3.28-30.36c-.25-2.34-3.74-2.47-3.75,0q0,8.44-.07,16.89c0,5.37,0,10.78-1.39,16l3.69.5.18-21.18c0-2.42-3.73-2.42-3.75,0Z" transform="translate(-5.59 -12.36)"/></svg>