<svg id="Layer_1" data-name="Layer 1" xmlns="http://www.w3.org/2000/svg" viewBox="0 0 264.76 392.43"><defs><style>.cls-1{fill:#f48fab;}.cls-2{fill:#fff200;}</style></defs><path class="cls-1" d="M379.85,412.89l-82.64-53.46-82.34-53.26-23.06-14.91c-7-4.55-14.37-8.84-21-13.93l3.54,2.74a39.13,39.13,0,0,1-7-6.8l2.73,3.54a24.82,24.82,0,0,1-2.92-5.07l1.76,4.18a22.36,22.36,0,0,1-1.31-5l.62,4.65a24.41,24.41,0,0,1,0-5.73l-.63,4.65a33.55,33.55,0,0,1,2.24-7.93l-1.76,4.18a71.15,71.15,0,0,1,9.41-15.23L174.76,259a668,668,0,0,1,44.45-51.36q23.46-24.58,49.22-46.82,14.54-12.54,29.74-24.29l-3.54,2.74a702.22,702.22,0,0,1,62.18-42.88q9.1-5.58,18.36-10.86a18.06,18.06,0,0,0,8.05-10.46c1.15-4.19.63-9.77-1.77-13.49s-6-7-10.46-8a18.37,18.37,0,0,0-13.48,1.77,730.36,730.36,0,0,0-91.29,62.11A702,702,0,0,0,188,189.8q-18.26,19.65-35,40.66c-7.32,9.2-14.29,18.25-18,29.58a42.64,42.64,0,0,0-1.14,20.74c1.16,6.69,4.7,12.24,8.82,17.45,3.25,4.09,7.52,7.25,11.7,10.32,3.66,2.67,7.53,5.05,11.33,7.51l26.35,17L244.51,367l104.8,67.79,12.87,8.33c3.71,2.4,9.3,2.91,13.49,1.76a17.5,17.5,0,0,0,4.18-32Z" transform="translate(-123.6 -53.03)"/><path class="cls-2" d="M370.3,412.89l-82.64-53.46-82.34-53.26-23.06-14.91c-7-4.55-14.37-8.84-21-13.93l3.55,2.74a38.86,38.86,0,0,1-7-6.8l2.74,3.54a24.4,24.4,0,0,1-2.93-5.07l1.77,4.18a22.38,22.38,0,0,1-1.32-5l.62,4.65a25,25,0,0,1,0-5.73l-.62,4.65a32.63,32.63,0,0,1,2.24-7.93l-1.77,4.18A71.56,71.56,0,0,1,168,255.49L165.22,259a670,670,0,0,1,44.44-51.36q23.46-24.58,49.23-46.82,14.52-12.54,29.73-24.29l-3.54,2.74a702.37,702.37,0,0,1,62.19-42.88q9.09-5.58,18.36-10.86a18.09,18.09,0,0,0,8-10.46c1.15-4.19.63-9.77-1.76-13.49s-6-7-10.46-8A18.4,18.4,0,0,0,348,55.34a730.36,730.36,0,0,0-91.29,62.11,703.78,703.78,0,0,0-78.23,72.35q-18.25,19.65-35,40.66c-7.31,9.2-14.29,18.25-18,29.58a42.64,42.64,0,0,0-1.15,20.74c1.17,6.69,4.7,12.24,8.83,17.45,3.24,4.09,7.51,7.25,11.7,10.32,3.65,2.67,7.52,5.05,11.32,7.51l26.35,17L235,367l104.8,67.79,12.88,8.33c3.71,2.4,9.3,2.91,13.48,1.76a17.5,17.5,0,0,0,4.18-32Z" transform="translate(-123.6 -53.03)"/></svg>