<svg id="Layer_1" data-name="Layer 1" xmlns="http://www.w3.org/2000/svg" viewBox="0 0 264.76 392.43"><defs><style>.cls-1{fill:#f48fab;}.cls-2{fill:#fff200;}</style></defs><path class="cls-1" d="M158.62,80l82.64,53.46,82.34,53.26,23,14.91c7,4.55,14.37,8.84,21,13.93l-3.54-2.74a39.19,39.19,0,0,1,7,6.8l-2.74-3.54a23.92,23.92,0,0,1,2.92,5.07L369.57,217a22.38,22.38,0,0,1,1.32,5l-.63-4.65a24.41,24.41,0,0,1,0,5.73l.62-4.65a33.55,33.55,0,0,1-2.24,7.93l1.76-4.18A71.15,71.15,0,0,1,361,237.39l2.74-3.54a668,668,0,0,1-44.45,51.36Q295.79,309.8,270,332q-14.53,12.54-29.74,24.29l3.55-2.74a703.84,703.84,0,0,1-62.19,42.88q-9.1,5.57-18.36,10.86a18,18,0,0,0-8,10.46c-1.16,4.19-.64,9.77,1.76,13.48s6,7,10.46,8.05A18.42,18.42,0,0,0,181,437.54a729.62,729.62,0,0,0,91.29-62.11,703,703,0,0,0,78.24-72.35q18.24-19.65,34.95-40.66c7.32-9.2,14.29-18.25,18-29.58a42.52,42.52,0,0,0,1.14-20.74c-1.16-6.69-4.69-12.24-8.82-17.45-3.25-4.09-7.51-7.26-11.7-10.32-3.66-2.67-7.53-5.05-11.33-7.51l-26.35-17L294,125.88,189.16,58.1l-12.88-8.33c-3.71-2.4-9.3-2.92-13.48-1.76a17.5,17.5,0,0,0-4.18,32Z" transform="translate(-150.09 -47.42)"/><path class="cls-2" d="M168.16,80l82.64,53.46,82.34,53.26,23.06,14.91c7,4.55,14.37,8.84,21,13.93l-3.54-2.74a39.13,39.13,0,0,1,7,6.8L378,216.07a24.82,24.82,0,0,1,2.92,5.07L379.12,217a22.36,22.36,0,0,1,1.31,5l-.62-4.65a24.41,24.41,0,0,1,0,5.73l.63-4.65a33.55,33.55,0,0,1-2.24,7.93l1.76-4.18a71.15,71.15,0,0,1-9.41,15.23l2.73-3.54a665.65,665.65,0,0,1-44.44,51.36Q305.34,309.8,279.58,332,265,344.57,249.84,356.32l3.54-2.74a702.22,702.22,0,0,1-62.18,42.88q-9.1,5.57-18.36,10.86a18.06,18.06,0,0,0-8.05,10.46c-1.15,4.19-.63,9.77,1.77,13.48s6,7,10.46,8.05a18.42,18.42,0,0,0,13.48-1.77,730.36,730.36,0,0,0,91.29-62.11A702.9,702.9,0,0,0,360,303.08q18.25-19.65,35-40.66c7.31-9.2,14.29-18.25,18-29.58a42.64,42.64,0,0,0,1.14-20.74c-1.17-6.69-4.7-12.24-8.82-17.45-3.25-4.09-7.52-7.26-11.71-10.32-3.65-2.67-7.52-5.05-11.32-7.51l-26.35-17-52.4-33.9L198.7,58.1l-12.87-8.33c-3.71-2.4-9.3-2.92-13.49-1.76a17.5,17.5,0,0,0-4.18,32Z" transform="translate(-150.09 -47.42)"/></svg>