<svg xmlns="http://www.w3.org/2000/svg" viewBox="0 0 147.85 217.86"><defs><style>.cls-1{fill:#7febf6;}.cls-1,.cls-2{stroke:#000;stroke-miterlimit:10;}.cls-2{fill:#fd0;}</style></defs><g id="Layer_2" data-name="Layer 2"><g id="Layer_1-2" data-name="Layer 1"><path class="cls-1" d="M121.44,45.49c-4-16.09-5.44-30.23-17.71-37.7C97.41,4,89.78,2.15,82.42,1.44,69,.14,54.48-.91,43,6.21,29.9,14.4,24.87,30.79,21.21,45.85,8.08,100-4.27,152.4,2.34,210c.85,7.46,15,7,26.77,6.73,11.12-.3,15.82.08,21.47-9.51,8.45-14.34-.41-47.76,4.7-63.6,2.66-8.21,34.16-6.58,35.27-2.88,1.2,4,3.64,29.33,3.64,42.38,0,12.82-6.82,22,2.21,26.74,2.51,1.33,13.83,5,16.67,5.18,19.76,1.4,29.07-2.26,29.07-12.87,0-16.7.33,2,.33-25.4C142.47,136.24,129.33,77.62,121.44,45.49ZM68.2,96.17c-2.32,0-4.63-.17-6.93-.37-1.77-.15-4.6-.32-6.17-1.15-2.87-1.5-2.41-5-2.36-7.11A83.69,83.69,0,0,1,57,64.47c.52-1.64,1.18-3.64,2.63-4.55.65-.41,3-2.47,3.65-2.79,6.39-3,12.62-2.51,18.1,1.43.54.39,2.43,6,2.72,7.27,3.62,16,1.67,25.29,1.74,25.79C86.37,96.11,75.88,96.08,68.2,96.17Z"/><path class="cls-2" d="M126.31,46c-4-16.09-5.43-30.23-17.71-37.7-6.31-3.84-13.95-5.64-21.3-6.35C73.88.64,59.36-.41,47.92,6.71,34.77,14.9,29.74,31.29,26.09,46.35,13,100.49.61,152.9,7.21,210.5c.86,7.46,15,7,26.78,6.73,11.12-.3,15.82.08,21.46-9.51,8.45-14.34-.41-47.76,4.71-63.6,2.65-8.21,34.16-6.58,35.27-2.88,1.24,4.13,3.63,29.33,3.63,42.38,0,12.82-6.81,22,2.21,26.74,2.51,1.33,13.84,5,16.67,5.18,19.77,1.4,29.08-2.26,29.08-12.87,0-16.7.33,2,.33-25.4C147.35,136.74,134.21,78.12,126.31,46ZM73.07,96.67c-2.31,0-4.62-.17-6.92-.37-1.78-.15-4.6-.32-6.18-1.15-2.87-1.5-2.41-5-2.35-7.11A83.68,83.68,0,0,1,61.82,65c.53-1.64,1.18-3.64,2.64-4.55.65-.41,3-2.47,3.65-2.79,6.39-3,12.61-2.51,18.1,1.43.53.39,2.42,6,2.72,7.27,3.61,16,1.67,25.29,1.73,25.79C91.25,96.61,80.75,96.58,73.07,96.67Z"/></g></g></svg>