<svg xmlns="http://www.w3.org/2000/svg" viewBox="0 0 139 237"><defs><style>.cls-1{fill:#fd0;}.cls-1,.cls-2{stroke:#000;stroke-miterlimit:10;}.cls-2{fill:#ff73e3;}</style></defs><g id="Layer_2" data-name="Layer 2"><g id="Layer_1-2" data-name="Layer 1"><path class="cls-1" d="M127.9,147.16c-3.09-8-8.54-16.47-15.9-21.31-10.18-6.7-22.44-10.42-35.48-14.28a59.14,59.14,0,0,0,37.91-26.28A54.44,54.44,0,0,0,120,40.83c-5.17-16.36-18.6-30.09-35.23-36.36A65.23,65.23,0,0,0,32.87,7.55,41.23,41.23,0,0,0,19.73,17.63c-4.7,5.75-7.24,12.87-9,20C-3.62,97.66-1.34,154.18,8.09,225.81c1.62,12.28,72.59,12,85.15,8.83,10.87-2.77,13.8-4.43,20.26-8.19C124.36,220.1,144.13,189.28,127.9,147.16Zm-76-87.58c.49-2.21,1.38-7.21,3.81-8.61s15.55-2.14,18.71,1.61c1.2,1.42,3.1,4,3.5,6.51.81,5.07-1.59,10.64-7.37,13.63S52.51,76,51.63,71A29.14,29.14,0,0,1,51.89,59.58Zm28,115.76C78.69,181.8,72,187.25,67,189.59c-3.59,1.7-12.73.46-13.85-3s-2.82-17.72-1.53-23.47c.75-3.29,2-6.87,5.05-8.52a10.46,10.46,0,0,1,5.54-1c6.32.37,13,1.76,16.28,8.4C80.3,165.64,80.57,171.39,79.85,175.34Z" transform="translate(0)"/><path class="cls-2" d="M132.34,147.16c-3.09-8-8.54-16.47-15.9-21.31C106.26,119.15,94,115.43,81,111.57a59.11,59.11,0,0,0,37.91-26.28,54.4,54.4,0,0,0,5.55-44.46c-5.17-16.36-18.59-30.09-35.23-36.36A65.23,65.23,0,0,0,37.31,7.55,41.23,41.23,0,0,0,24.17,17.63c-4.7,5.75-7.24,12.87-9,20C.82,97.66,3.1,154.18,12.54,225.81c1.61,12.28,72.59,12,85.14,8.83,10.87-2.77,13.8-4.43,20.26-8.19C128.8,220.1,148.58,189.28,132.34,147.16Zm-76-87.58c.49-2.21,1.38-7.21,3.81-8.61s15.55-2.14,18.71,1.61c1.21,1.42,3.11,4,3.5,6.51.82,5.07-1.58,10.64-7.37,13.63S57,76,56.07,71A29.14,29.14,0,0,1,56.33,59.58Zm28,115.76c-1.17,6.46-7.87,11.91-12.83,14.25-3.59,1.7-12.73.46-13.85-3s-2.82-17.72-1.53-23.47c.75-3.29,2-6.87,5-8.52a10.46,10.46,0,0,1,5.54-1c6.33.37,13,1.76,16.28,8.4C84.75,165.64,85,171.39,84.3,175.34Z" transform="translate(0)"/></g></g></svg>