<svg xmlns="http://www.w3.org/2000/svg" viewBox="0 0 165.18 233.85"><defs><style>.cls-1{fill:#fd0;}.cls-1,.cls-2{stroke:#000;stroke-miterlimit:10;}.cls-2{fill:#ff73e3;}</style></defs><g id="Layer_2" data-name="Layer 2"><g id="Layer_1-2" data-name="Layer 1"><path class="cls-1" d="M5.82,217.06C2.36,160.9-1.76,111.51,2,52.75c.85-13.32,2-26.68,5.13-39.66A9.24,9.24,0,0,1,8.36,9.85c1.49-2.13,4.36-2.69,6.94-3.06C53.63,1.28,140.93-2.58,148.71,3.84c4,3.34,7.8,34.91,0,36C74,50.32,70.8,42.74,58,44.54,47.41,46,50.81,57.13,49.71,66.84c-.48,4.2,2.51,24.67,9,27,2.92,1,5.9.23,9,0,97.2-7.17,87.83-10.88,88.8-2.29a158.62,158.62,0,0,1,.81,25c-.11,3.18.68,6.52-.72,9.37s-4.73,3.42-7.89,4c-32.77,5.78-44.93,1.52-78.32,5.44-4,.47-8.53,1.47-10.55,5-1.31,2.25-1.24,5-1.13,7.6.48,12,.06,13.16.55,25.15.15,3.82.72,8.35,4.11,10.13,1.75.91,3.83.83,5.8.71,31.74-1.93,42.86.25,73.89-6.71,3.14-.71,6.84-1.31,9.23.85a10,10,0,0,1,2.35,4.1c2,5.21,4.87,21.36,5.09,26.93s2.44,7.52-2,10.84c-2.85,2.12-6.41,3-9.88,3.74-35.74,7.88-79.94,3.43-116.39,6.82-6,.56-12.32,1.06-17.73-1.56S6,219.66,5.82,217.06Z"/><path class="cls-2" d="M10,219.56C6.57,163.4,2.44,114,6.19,55.25c.85-13.32,2-26.68,5.14-39.66a9.24,9.24,0,0,1,1.24-3.24c1.49-2.13,4.36-2.69,6.94-3.06C57.83,3.78,145.14-.08,152.91,6.34c4,3.34,7.8,34.91,0,36C78.24,52.82,75,45.24,62.2,47,51.62,48.52,55,59.63,53.91,69.34c-.47,4.2,2.51,24.67,9,27,2.93,1,5.91.23,9,0,97.21-7.17,85.84-10.88,86.81-2.29.93,8.32,3.14,15.38,2.81,25-.11,3.18.68,6.52-.72,9.37s-4.73,3.42-7.9,4c-32.76,5.78-44.92,1.52-78.32,5.44-4,.47-8.52,1.47-10.54,5-1.31,2.25-1.24,5-1.14,7.6.49,12,.07,13.16.55,25.15.16,3.82.73,8.35,4.12,10.13,1.75.91,3.83.83,5.79.71,31.75-1.93,42.87.25,73.9-6.71,3.14-.71,6.84-1.31,9.23.85a10.16,10.16,0,0,1,2.35,4.1c2,5.21,4.87,21.36,5.08,26.93s2.45,7.52-2,10.84c-2.84,2.12-6.41,3-9.87,3.74C116.29,234,72.1,229.51,35.65,232.9c-6,.56-12.32,1.06-17.74-1.56S10.19,222.16,10,219.56Z"/></g></g></svg>