<svg xmlns="http://www.w3.org/2000/svg" viewBox="0 0 167.28 218.69"><defs><style>.cls-1{fill:#3fff43;}.cls-1,.cls-2{stroke:#000;stroke-miterlimit:10;}.cls-2{fill:#7febf6;}</style></defs><g id="Layer_2" data-name="Layer 2"><g id="Layer_1-2" data-name="Layer 1"><path class="cls-1" d="M153.22,17c-.59-6.41-7.11-10.49-13.19-12.58C124.36-1,107.23,0,90.84,2.49c-15.38,2.32-30.91,6-44,14.47C34.11,25.17,24.4,37.45,17.09,50.74A131.77,131.77,0,0,0,.57,118.25,117.69,117.69,0,0,0,23,183.81c8.08,10.93,18.35,20.47,30.67,26.21,12.06,5.61,25.53,7.52,38.81,8.12,14.49.65,35.16-5.29,41.18-10,24.33-19,34.48-57,27-90-.7-3.12-1.68-6.37-4.05-8.52-2.9-2.63-7.15-3-11.07-3.18l-30.62-1.62c-10.31-.54-20.71-1.09-30.93.4-2,.28-4.1.75-5.28,2.34a7.72,7.72,0,0,0-1.14,3.81A115.22,115.22,0,0,0,77,129.28c.12,2.73.49,5.78,2.62,7.51,2.29,1.86,5.63,1.38,8.52.81l26.44-5.21c2.17-.43,4.61-.8,6.44.43a7.15,7.15,0,0,1,2.34,3.24c4.33,10,.64,22.78-8.34,28.91s-21.07,11.49-35.32,7.17C58.84,165.82,47,133.9,45.71,127.59c-4.1-19.8-4.48-42,7.17-58.51C59.82,59.25,69.3,50.4,80.69,46.51c27.66-9.47,42.59-6.76,62-.37C151.4,49,154.45,30.29,153.22,17Z"/><path class="cls-2" d="M156.94,17c-.6-6.41-7.11-10.49-13.19-12.58C128.08-1,110.94,0,94.56,2.49c-15.38,2.32-30.91,6-44,14.47C37.83,25.17,28.12,37.45,20.81,50.74A131.67,131.67,0,0,0,4.29,118.25a117.61,117.61,0,0,0,22.42,65.56c8.07,10.93,18.35,20.47,30.67,26.21,12.05,5.61,25.52,7.52,38.81,8.12,14.49.65,35.16-5.29,41.18-10,24.33-19,34.47-57,27-90-.7-3.12-1.69-6.37-4.05-8.52-2.91-2.63-7.16-3-11.07-3.18l-30.62-1.62c-10.31-.54-20.71-1.09-30.93.4-2,.28-4.1.75-5.28,2.34a7.73,7.73,0,0,0-1.15,3.81,116.46,116.46,0,0,0-.6,17.91c.11,2.73.49,5.78,2.61,7.51,2.3,1.86,5.63,1.38,8.53.81l26.44-5.21c2.17-.43,4.6-.8,6.43.43a7.17,7.17,0,0,1,2.35,3.24c4.33,10,.64,22.78-8.34,28.91s-21.07,11.49-35.32,7.17c-20.81-6.32-32.63-38.24-33.94-44.55-4.1-19.8-4.48-42,7.17-58.51C63.54,59.25,73,50.4,84.41,46.51c27.66-9.47,42.59-6.76,62-.37C155.12,49,158.17,30.29,156.94,17Z"/></g></g></svg>