<svg xmlns="http://www.w3.org/2000/svg" viewBox="0 0 152.91 220.85"><defs><style>.cls-1{fill:#fd0;}.cls-1,.cls-2{stroke:#000;stroke-miterlimit:10;}.cls-2{fill:#ff73e3;}</style></defs><g id="Layer_2" data-name="Layer 2"><g id="Layer_1-2" data-name="Layer 1"><path class="cls-1" d="M1.07,16.26C-1.1,63.5,3.6,141,3.6,205.41c0,4,.62,8.42,3.47,11.26,2.58,2.57,6.47,3.43,10.11,3.55C53,221.39,126,214.7,139.12,211.3c6.37-1.65,16-49.37-2.31-52.19-5-.77-42.5,3.14-71,4.77-23.16,1.32-3.75-83.13-2.34-135.27.1-3.71,2-16.67,0-19.83C59.18,1.82,2.22-8.76,1.07,16.26Z"/><path class="cls-2" d="M6.07,16.26C3.9,63.5,8.6,141,8.6,205.41c0,4,.62,8.42,3.47,11.26,2.58,2.57,6.47,3.43,10.11,3.55C58,221.39,131,214.7,144.12,211.3c6.37-1.65,16-49.37-2.31-52.19-5-.77-42.5,3.14-71,4.77-23.16,1.32-3.75-83.13-2.34-135.27.1-3.71,2-16.67,0-19.83C64.18,1.82,7.22-8.76,6.07,16.26Z"/></g></g></svg>