<svg xmlns="http://www.w3.org/2000/svg" viewBox="0 0 162.91 245.47"><defs><style>.cls-1{fill:#7febf6;}.cls-1,.cls-2{stroke:#000;stroke-miterlimit:10;}.cls-2{fill:#fd0;}</style></defs><g id="Layer_2" data-name="Layer 2"><g id="Layer_1-2" data-name="Layer 1"><path class="cls-1" d="M96.78,99.68c-.21,9.69-.28,19.38-.69,29-.28,6.69-1,13.37-1.58,20.05a6.31,6.31,0,0,1-.78,2.73,3.28,3.28,0,0,1-2.07,1.59,3.35,3.35,0,0,1-2.2-1.44,7.51,7.51,0,0,1-1-2.65c-1.43-5.56-3-11.08-4.18-16.7-2-9.57-3.91-19.15-5.39-28.81-2.3-15-4-30.21-6.34-45.25-1.91-12.2-4.37-24.32-6.76-36.44a43.62,43.62,0,0,0-5.57-15A6.64,6.64,0,0,0,54.65,3.4C49.08,3,43.53,2.42,38,2.11a36.12,36.12,0,0,0-14.83,2C14,7.54,7.49,13.4,6.2,23.78c-.72,5.7-1.8,11.4-1.95,17.12C3.94,52.78,4,64.68,4.16,76.57c.14,11.12.89,22.24.88,33.35,0,22.54-.4,45.07-1.7,67.57-.56,9.76-1.09,19.53-2.16,29.24-1,8.73-.61,17.42-.64,26.14A4.09,4.09,0,0,0,3,237a41.65,41.65,0,0,0,4.92,2.22,62.32,62.32,0,0,0,25.8,2.73c3-.29,6-.65,9-.94,4.15-.39,6.58-2.76,7.31-6.8a23.6,23.6,0,0,0,.36-6.27c-1.35-14.89-2.9-29.76-4.21-44.66-.93-10.59-2.65-21.12-2.5-31.79q.14-10.22.48-20.41a12.77,12.77,0,0,1,.9-4.18,2.73,2.73,0,0,1,1.88-1.4,2.25,2.25,0,0,1,1.67,1.25,15.38,15.38,0,0,1,1,3.87c1.23,9.21,2.15,18.47,3.67,27.63,2.2,13.26,6.08,26.12,9.59,39.06A213.91,213.91,0,0,0,72.27,225,100.05,100.05,0,0,0,78,235.93c3.24,5.56,8.19,8.13,14.55,8.6a144.72,144.72,0,0,0,25.24-.24c5.09-.51,10.19-1,14.89-3.36,6-3,10.09-7.57,11.68-14.33,1.53-6.49,1.82-13.11,2-19.71.7-22.52,1.06-45,1.85-67.57.39-11.2,1.35-22.38,2.18-33.56,1.32-17.78,2.76-35.55,4.11-53.33.55-7.26,1.12-14.53,1.45-21.8.25-5.46.24-10.93.16-16.4a11.07,11.07,0,0,0-4.87-9.56c-2.38-1.63-5.06-2-7.8-2.29Q134.1,1.56,124.76.81C116.89.2,109,.38,101.35,2.38,95.16,4,93.63,6.09,93.73,12.6c.1,6.33.24,12.66.5,19C94.67,42.31,95,53,95.77,63.75Q97,81.71,96.78,99.68Z"/><path class="cls-2" d="M124,244.51c5.08-.51,10.19-1,14.88-3.36,6-3,10.1-7.58,11.69-14.33,1.53-6.49,1.82-13.11,2-19.71.7-22.52,1.06-45.05,1.85-67.57.39-11.2,1.35-22.38,2.18-33.56,1.31-17.78,2.76-35.55,4.1-53.33.56-7.26,1.12-14.53,1.46-21.81.25-5.45.23-10.93.15-16.39a11.07,11.07,0,0,0-4.86-9.57c-2.38-1.62-5.07-2-7.81-2.28Q140.35,1.77,131,1A70.42,70.42,0,0,0,107.59,2.6C101.4,4.21,99.88,6.31,100,12.82c.1,6.33.24,12.66.5,19,.44,10.73.79,21.46,1.53,32.17q1.26,18,1,35.93c-.22,9.68-.29,19.37-.69,29-.29,6.69-1,13.37-1.59,20a6.21,6.21,0,0,1-.77,2.74,3.33,3.33,0,0,1-2.08,1.59,3.39,3.39,0,0,1-2.19-1.44,7.63,7.63,0,0,1-1-2.66c-1.43-5.55-3-11.08-4.18-16.69-2-9.57-3.91-19.15-5.39-28.81-2.3-15-4-30.21-6.34-45.25C76.86,46.26,74.4,34.15,72,22A43.79,43.79,0,0,0,66.44,7a6.63,6.63,0,0,0-5.55-3.41c-5.56-.37-11.11-1-16.68-1.29a36.16,36.16,0,0,0-14.83,2C20.24,7.76,13.74,13.62,12.44,24c-.71,5.7-1.79,11.4-1.94,17.12-.32,11.88-.25,23.78-.1,35.67.15,11.12.9,22.23.88,33.35,0,22.53-.39,45.07-1.69,67.57C9,187.47,8.49,197.24,7.42,207c-1,8.72-.61,17.42-.63,26.14a4.07,4.07,0,0,0,2.43,4.11,40.71,40.71,0,0,0,4.91,2.23,62.54,62.54,0,0,0,25.81,2.73c3-.29,6-.65,9-.94,4.16-.39,6.58-2.76,7.31-6.8a23.65,23.65,0,0,0,.37-6.28c-1.35-14.89-2.91-29.76-4.21-44.65-.93-10.59-2.65-21.12-2.51-31.8q.15-10.2.48-20.4a12.79,12.79,0,0,1,.91-4.18,2.68,2.68,0,0,1,1.88-1.4c.51-.07,1.42.66,1.67,1.25a15.39,15.39,0,0,1,1,3.86C57.08,140,58,149.3,59.52,158.46c2.19,13.25,6.07,26.11,9.59,39.06a213.78,213.78,0,0,0,9.41,27.72,98.25,98.25,0,0,0,5.71,10.9c3.24,5.56,8.19,8.14,14.54,8.61"/></g></g></svg>