<svg xmlns="http://www.w3.org/2000/svg" viewBox="0 0 200 232"><defs><style>.cls-1{fill:#3fff43;}.cls-1,.cls-2{stroke:#000;stroke-miterlimit:10;}.cls-2{fill:#7febf6;}</style></defs><g id="Layer_2" data-name="Layer 2"><g id="Layer_1-2" data-name="Layer 1"><path class="cls-1" d="M158.09,14.37C144.27,2.39,121.25.5,102.53.5,84.27.5,67.62,7,52.86,16c-14.4,8.8-25.37,21.95-33.62,36.18C6.47,74.17-.32,99.38.58,124.47a121.8,121.8,0,0,0,25.33,70.21c9.11,11.71,20.72,21.93,34.63,28.07,13.62,6,28.83,8.06,43.83,8.7,16.37.7,39.72-5.67,46.52-10.72C178.36,200.34,195.5,172,195.5,127,195.5,39.53,164.44,19.87,158.09,14.37ZM120.63,148.58c-2.24,1.77-9.9,4-15.27,3.76-4.92-.23-9.92-.94-14.39-3.05a30.65,30.65,0,0,1-11.36-9.84,44.59,44.59,0,0,1-8.32-24.62,50.1,50.1,0,0,1,6.13-25.36,34.51,34.51,0,0,1,11-12.68c4.85-3.16,10.31-5.43,16.3-5.43,6.15,0,13.7.66,18.24,4.86,2.08,1.93,12.28,8.82,12.28,39.5C135.27,131.49,129.64,141.43,120.63,148.58Z" transform="translate(0 0)"/><path class="cls-2" d="M162.09,14.37C148.27,2.39,125.25.5,106.53.5,88.27.5,71.62,7,56.86,16c-14.4,8.8-25.37,21.95-33.62,36.18-12.77,22-19.56,47.21-18.66,72.3a121.8,121.8,0,0,0,25.33,70.21c9.11,11.71,20.72,21.93,34.63,28.07,13.62,6,28.83,8.06,43.83,8.7,16.37.7,39.72-5.67,46.52-10.72C182.36,200.34,199.5,172,199.5,127,199.5,39.53,168.44,19.87,162.09,14.37ZM124.63,148.58c-2.24,1.77-9.9,4-15.27,3.76-4.92-.23-9.92-.94-14.39-3.05a30.65,30.65,0,0,1-11.36-9.84,44.59,44.59,0,0,1-8.32-24.62,50.1,50.1,0,0,1,6.13-25.36,34.51,34.51,0,0,1,11-12.68c4.85-3.16,10.31-5.43,16.3-5.43,6.15,0,13.7.66,18.24,4.86,2.08,1.93,12.28,8.82,12.28,39.5C139.27,131.49,133.64,141.43,124.63,148.58Z" transform="translate(0 0)"/></g></g></svg>