<svg xmlns="http://www.w3.org/2000/svg" viewBox="0 0 160.06 241.92"><defs><style>.cls-1{fill:#7febf6;}.cls-1,.cls-2{stroke:#000;stroke-miterlimit:10;}.cls-2{fill:#fd0;}</style></defs><g id="Layer_2" data-name="Layer 2"><g id="Layer_1-2" data-name="Layer 1"><path class="cls-1" d="M151,32C142.69,14.81,123.32,5.5,104.44,2.65,80.66-.95,58.5.13,34.89,4.69,25.38,6.53,13.09,12.32,7,19.8.45,27.71.59,39,1,49.2c2.15,60.46.85,121-.45,181.48C.32,239.3,14,241,23.21,241c8.35,0,17.2.54,25.34-1.33,18.85-4.32,29.26-2.22,15.54-95.88-2.19-14.95,1.57-27.47,7.79-27.09,25.27,1.52,78-4.9,83.26-54.76C156.21,51.77,155.38,41.2,151,32ZM113.75,62.1c-7.34,13.46-36.16,9.1-38.06,8.8S74,53.78,74.15,45.31c0-2.16.27-4.64,2-5.9a6.89,6.89,0,0,1,3-1,95.63,95.63,0,0,1,20.13,0,25,25,0,0,1,9.29,2.82C114.8,44.87,117.34,55.51,113.75,62.1Z" transform="translate(0)"/><path class="cls-2" d="M155,32.41C146.69,15.21,127.32,5.89,108.44,3,84.66-.55,62.5.52,38.89,5.08,29.38,6.92,17.09,12.71,11,20.19c-6.5,7.91-6.36,19.17-6,29.4,2.15,60.47.85,121-.45,181.49-.18,8.61,13.47,10.28,22.71,10.27,8.35,0,17.2.54,25.34-1.32,18.85-4.33,22.83-.05,15.54-95.88-1.15-15.07,1.57-27.48,7.79-27.1,25.27,1.53,78-4.9,83.26-54.75C160.21,52.16,159.38,41.6,155,32.41ZM117.75,62.5C110.41,76,81.59,71.6,79.69,71.29S78,54.17,78.15,45.71c0-2.17.27-4.65,2-5.9a6.9,6.9,0,0,1,3-1,95.63,95.63,0,0,1,20.13,0,25,25,0,0,1,9.29,2.82C118.8,45.26,121.34,55.9,117.75,62.5Z" transform="translate(0)"/></g></g></svg>