<svg xmlns="http://www.w3.org/2000/svg" viewBox="0 0 150 213.77"><defs><style>.cls-1{fill:#7febf6;}.cls-1,.cls-2{stroke:#000;stroke-miterlimit:10;}.cls-2{fill:#fd0;}</style></defs><g id="Layer_2" data-name="Layer 2"><g id="Layer_1-2" data-name="Layer 1"><path class="cls-1" d="M133.47,165.62,73.88,125.27c-1.2-.81-2.46-1.7-2.86-2.93-.81-2.49,2.23-4.61,4.91-6,17.63-9.08,36.65-17.92,47.49-32.39,14.69-19.6,9.84-46.8-9.31-63.69S63.73-3,36.21,2.36C26.35,4.29,16.33,8,11,15S4.14,30.66,3.3,38.79c-6.36,61.81-.73,111,5.38,168.38,1,9,50.35,6.23,53.84,3.15,9.37-8.25-3.94-53.39,0-44.21C63.75,169,86.39,201.66,88.77,204c6.85,6.76,20.43,4.14,29.54-.56A76.1,76.1,0,0,0,141,185.83a14.1,14.1,0,0,0,3-4.69C145.94,175.09,139.39,169.63,133.47,165.62ZM58.35,74.23c-1.83-.59-2.62-16.75-2.09-24,.23-3.16.75-6.5,3.17-9,2.78-2.84,7.64-4,12.09-3.57,7.15.63,17,1.54,18.68,12a19.53,19.53,0,0,1-5.53,16.43C75.79,75.42,60.86,75,58.35,74.23Z"/><path class="cls-2" d="M138.61,165.62,79,125.27a2.24,2.24,0,0,0-.54-.3c0-.06,0-.2-.08-.55-.82-2.49,109.42-43.66,40.84-104.15C100.09,3.37,68.86-3,41.34,2.36,31.49,4.29,21.46,8,16.12,15S9.28,30.66,8.44,38.79c-6.36,61.81-.73,111,5.38,168.38.95,9,50.35,6.23,53.84,3.15,9.37-8.25-3.94-53.39,0-44.21C68.89,169,91.53,201.66,93.9,204c6.86,6.76,20.44,4.14,29.55-.56a75.93,75.93,0,0,0,22.71-17.61,14,14,0,0,0,3-4.69C151.08,175.09,144.53,169.63,138.61,165.62ZM63.49,74.23c-1.84-.59-2.62-16.75-2.09-24,.23-3.16.75-6.5,3.17-9,2.78-2.84,7.64-4,12.09-3.57,7.15.63,17,1.54,18.68,12a19.56,19.56,0,0,1-5.53,16.43C80.93,75.42,66,75,63.49,74.23Z"/></g></g></svg>