<svg xmlns="http://www.w3.org/2000/svg" viewBox="0 0 181.6 268"><defs><style>.cls-1{fill:#fd0;}.cls-1,.cls-2{stroke:#000;stroke-miterlimit:10;}.cls-2{fill:#ff73e3;}</style></defs><g id="Layer_2" data-name="Layer 2"><g id="Layer_1-2" data-name="Layer 1"><path class="cls-1" d="M176.08,50C174,19.38,137.93.3,105.85.5,80.14.66,53.26,10.54,39,31S27.44,82.8,48.6,96.73c18.84,12.4,48.49,10.66,59.48,29.81,5.83,10.15,3.17,24-6,31.57s-24,7.89-33.6.83c-13.58-10-19.76-33.09-36.79-31.15-5.54.62-10.24,4.17-14,8.08C3.4,150.54-1.9,172,1.49,191.69s14.79,37.68,29.81,51.6c9.5,8.82,20.62,16.24,33.1,20.48,43,14.59,93.67-15.48,106.48-57.29s-7.55-88.67-42.61-116.54c-3.66-2.9-7.66-5.91-9.08-10.24s1.46-10.19,6.21-10c6.33.25,7.11,8.72,9.8,14.2,5.87,12,26.23,9.82,34.46-.8S176.65,58.18,176.08,50Z"/><path class="cls-2" d="M180.68,50C178.56,19.38,142.53.3,110.45.5,84.74.66,57.86,10.54,43.58,31S32,82.8,53.2,96.73c18.83,12.4,48.49,10.66,59.48,29.81,5.82,10.15,3.16,24-6,31.57s-24,7.89-33.6.83c-13.58-10-19.76-33.09-36.79-31.15-5.54.62-10.24,4.17-14,8.08C8,150.54,2.7,172,6.09,191.69s14.79,37.68,29.8,51.6c9.51,8.82,20.63,16.24,33.11,20.48,43,14.59,93.67-15.48,106.48-57.29s-7.55-88.67-42.61-116.54c-3.66-2.9-7.66-5.91-9.08-10.24s1.46-10.19,6.21-10c6.33.25,7.11,8.72,9.8,14.2,5.87,12,26.23,9.82,34.46-.8S181.25,58.18,180.68,50Z"/></g></g></svg>