<svg xmlns="http://www.w3.org/2000/svg" viewBox="0 0 189.47 257.07"><defs><style>.cls-1{fill:#3fff43;}.cls-1,.cls-2{stroke:#000;stroke-miterlimit:10;}.cls-2{fill:#7febf6;}</style></defs><g id="Layer_2" data-name="Layer 2"><g id="Layer_1-2" data-name="Layer 1"><path class="cls-1" d="M10,1.89c45.07-1.69,105.16-2,150.1-.1,7.61.32,17.47-2.28,21.35,5.68,2,4.07,1.28,12.89,1.31,17.74.33,56.39.52,54.55-2.23,60-4,7.91-33.92.57-57.13,6.12-14.15,3.38,11.8,165.4-2.83,165.23-21.81-.25-47.28.05-70.18-.22-2.81,0-5.93-.24-7.81-2.74C40.07,250.26,54,139.38,60.8,104.76c1-5.24,1.63-11.88-1.92-14.67-1.74-1.37-19-.92-21.13-.81-14.43.79-34.51,6.34-36.38-11.52C-1.78,47.57,4.21,2.1,10,1.89Z"/><path class="cls-2" d="M16,1.89c45.07-1.69,105.16-2,150.1-.1,7.61.32,17.47-2.28,21.35,5.68,2,4.07,1.28,12.89,1.31,17.74.33,56.39.53,54.55-2.23,60-4,7.91-33.92.57-57.13,6.12-14.15,3.38,11.8,165.4-2.83,165.23-21.8-.25-47.28.05-70.18-.22-2.81,0-5.93-.24-7.81-2.74-2.53-3.35,11.4-114.23,18.2-148.85,1-5.24,1.63-11.88-1.92-14.67-1.74-1.37-19-.92-21.13-.81-14.43.79-34.51,6.34-36.38-11.52C4.23,47.57,10.22,2.1,16,1.89Z"/></g></g></svg>