<svg xmlns="http://www.w3.org/2000/svg" viewBox="0 0 225.02 272.51"><defs><style>.cls-1{fill:#fd0;}.cls-1,.cls-2{stroke:#000;stroke-miterlimit:10;}.cls-2{fill:#ff73e3;}</style></defs><g id="Layer_2" data-name="Layer 2"><g id="Layer_1-2" data-name="Layer 1"><path class="cls-1" d="M1.09,55.61c0,145.61,38.41,194,57.75,206.26,10.21,6.46,26.46,8.59,38.49,9.47,29.71,2.16,58.31.13,78.53-21.86,19.36-21.06,32.44-49.08,35.45-77.59,5-47.74,2.26-87.59,7.3-135.32.39-3.75,1.36-26.82-.46-30.11C215.68,2,186.26-2.72,146.67,5.35c-8.32,1.7-5.5,21.72-5.77,30.26-1.12,35.72,2.35,80-4.66,115-2.59,12.95-13.58,26.39-24.91,28.86-6.62,1.44-13.48-2.59-17.33-8.19s-5.28-12.49-6.4-19.2C82.13,119.34,80,87.17,80,50.26,80,29.83,94.54-2.25,43.64.69,31.49,1.39,18.9,2.21,8.19,8S1.09,46.59,1.09,55.61Z"/><path class="cls-2" d="M6.38,55.61c0,145.61,38.41,194,57.76,206.26,10.21,6.46,26.45,8.59,38.48,9.47,29.71,2.16,58.31.13,78.53-21.86,19.36-21.06,32.44-49.08,35.45-77.59,5-47.74,2.27-87.59,7.3-135.32.4-3.75,1.37-26.82-.45-30.11C221,2,191.56-2.72,152,5.35c-8.33,1.7-5.51,21.72-5.78,30.26-1.11,35.72,2.35,80-4.65,115C139,163.6,128,177,116.63,179.51c-6.62,1.44-13.48-2.59-17.33-8.19s-5.29-12.49-6.41-19.2c-5.46-32.78-7.57-64.95-7.57-101.86C85.32,29.83,99.83-2.25,48.93.69,36.79,1.39,24.2,2.21,13.48,8S6.38,46.59,6.38,55.61Z"/></g></g></svg>