<svg xmlns="http://www.w3.org/2000/svg" viewBox="0 0 215.76 286.23"><defs><style>.cls-1{fill:#ff73e3;}.cls-1,.cls-2{stroke:#000;stroke-miterlimit:10;}.cls-2{fill:#3fff43;}</style></defs><g id="Layer_2" data-name="Layer 2"><g id="Layer_1-2" data-name="Layer 1"><path class="cls-1" d="M.59,8.94C-.11,137.81,3.12,173.61,13.8,255.15c.74,5.67,1.61,11.61,4.69,16.22,6.28,9.4,7.78,10.37,18.1,12,8.49,1.35,15.31,2.3,24.94,1.83,3.33-.17,27.75-.51,30.35-2.22,13.58-8.95,11.55-17.27,20.14-38.12,1.28-3.11,2.28-9.64,15.32,19.62,2.87,6.44,1.87,9.23,7.3,13.06,4,2.8,9,2.8,13.63,2.72l44.71-.83c4.84-.08,1.48-1.46,5.26-4.8,5.46-4.82,5.65-13.89,5.38-21.73-2.53-73.22,6.93-139.4,4.4-212.62-.32-9.15-.84-19-5.84-26.29-10.74-15.74-69.2-9.84-70.12-1.4-3.61,33.11,9.23,155.85-4.28,137-9.55-13.33-12.1-25.08-20.71-25.81-10.06-.85-25.64,35.45-29.14,21.74-11.14-43.63-.6-83.19-3.12-124.71-.29-4.77-.7-9.83-3.27-13.67C67.44,1,48.67.63,41.88.5,34.4.37.62,3.89.59,8.94Z"/><path class="cls-2" d="M7.42,9.32C6.72,138.2,10,174,20.62,255.53c.74,5.68,1.61,11.62,4.7,16.23,6.28,9.39,7.77,10.37,18.09,12,8.5,1.36,15.31,2.31,24.94,1.83,3.34-.16,27.76-.5,30.35-2.21,13.58-8.95,11.56-17.27,20.14-38.13,1.28-3.11-1.12-15.54,11.92,13.72,2.87,6.44,5.27,15.13,10.71,19,4,2.81,8.95,2.81,13.62,2.73,18.92-.35,39,1.88,42.74-1.46,5.46-4.83,12.45-16.87,12.18-24.72-2.53-73.22,7.36-140.58,4.83-213.8-.32-9.16-.84-19-5.83-26.29C198.26-1.35,139.8,4.55,138.88,13c-3.6,33.11,9.24,155.85-4.27,137-9.55-13.33-12.1-25.08-20.72-25.81-10-.85-25.63,35.44-29.13,21.73-11.15-43.62-.61-83.18-3.13-124.7-.29-4.77-.69-9.84-3.27-13.68C74.26,1.41,55.49,1,48.71.89,41.22.76,7.44,4.28,7.42,9.32Z"/></g></g></svg>